<?xml version="1.0" encoding="UTF-8"?>
<svg width="500px" height="260px" viewBox="0 0 500 260" version="1.1" xmlns="http://www.w3.org/2000/svg" xmlns:xlink="http://www.w3.org/1999/xlink">
    <title>AFSC-Logo-Text</title>
    <g id="Resources" stroke="none" stroke-width="1" fill="none" fill-rule="evenodd">
        <g id="AFSC-Logo-Text" fill="#FFFFFF" transform="translate(-0.000137, -0.000430)">
            <path d="M97.8726633,174.529061 C103.193886,172.768303 109.671387,172.486707 115.240271,174.529061 L115.240271,174.529061 L127.726511,179.350611 L108.045566,258.888986 C107.553367,260.371277 105.459566,260.371277 104.968148,258.888986 L104.968148,258.888986 L85.2801709,179.323234 Z M173.00933,65.5293132 L172.953232,65.6526771 L146.806505,117.866847 L146.806407,117.867629 L146.805723,117.868411 L146.469778,118.540331 L145.084588,121.305448 C143.773619,123.923509 143.108759,126.7645 143.051726,129.614096 C143.049382,129.743161 143.029851,129.871444 143.029851,130.000508 C143.029851,131.22154 143.155464,132.440776 143.388372,133.64459 L143.494706,134.159526 L143.543144,134.438775 C143.602521,134.69143 143.696273,134.937044 143.765806,135.188134 C143.897059,135.661372 144.017375,136.136956 144.185347,136.600807 C144.189254,136.612541 144.195504,136.623492 144.200192,136.635225 C144.390626,137.159111 144.603033,137.676837 144.839721,138.187083 L145.084588,138.694787 L145.945546,140.414088 L172.953232,194.34834 C173.631902,195.703521 172.257166,197.139758 170.900613,196.582964 L170.777398,196.526798 L160.069326,191.152224 L160.069326,191.139709 L117.782364,169.913623 L115.240115,168.637836 C113.870551,167.950272 112.439266,167.435577 110.978293,167.092969 C106.740717,166.08655 102.243971,166.52884 98.2354123,168.423372 L97.8225059,168.624539 L94.388829,170.34775 L42.2360034,196.526798 C40.882455,197.206287 39.4479479,195.829893 40.0040713,194.471704 L40.0601694,194.34834 L45.4220181,183.640649 L45.4899884,183.640649 L66.6912832,141.301897 L67.9655328,138.757364 C70.6431722,133.41015 70.7040276,127.132845 68.1480991,121.743354 L67.9655328,121.368807 L46.4915752,78.4848537 L46.4861063,78.4848537 L40.0601694,65.6526771 C39.3814995,64.297496 40.7569714,62.8612586 42.1135674,63.4173376 L42.2367847,63.4734364 L52.9807949,68.8667834 L52.9807949,68.9231026 L95.2677565,90.149971 L97.8100056,91.4257576 C103.150778,94.1066269 109.420519,94.1675557 114.803517,91.6085442 L115.177614,91.4257576 L158.00912,69.9258975 L158.00912,69.8828759 L170.777398,63.4734364 C172.130946,62.794707 173.565453,64.1711236 173.00933,65.5293132 Z M155.234521,110.231369 L211.903081,128.460021 C213.383586,128.952815 213.383586,131.049141 211.903081,131.541152 L211.903081,131.541152 L155.181395,149.787013 L150.968793,138.694474 C149.210157,133.366051 148.9289,126.881519 150.968793,121.305917 L150.968793,121.305917 L155.234521,110.231369 Z M57.8434908,110.209702 L62.0810934,121.368728 C63.8397297,126.697152 64.1209865,133.181684 62.0810934,138.757286 L62.0810934,138.757286 L57.832553,149.786465 L1.1100855,131.540604 C-0.370419108,131.047811 -0.369637839,128.951485 1.1100855,128.459474 L1.1100855,128.459474 L57.8434908,110.209702 Z M122.152236,110.568111 L91.0842958,110.568111 C89.512288,110.568111 89.7930341,112.456198 90.8501352,113.651178 L90.9514801,113.761098 L96.224264,119.249092 L103.934607,128.009859 C104.746176,129.072306 104.905838,130.354464 104.056687,131.480513 L103.934607,131.633062 L95.7672217,140.78337 L90.5045943,146.118051 C89.3780518,147.260364 89.0103891,149.205868 90.4780047,149.322728 L90.6210033,149.328246 L121.688943,149.328246 C123.260951,149.328246 122.980205,147.440159 121.923104,146.245893 L121.821759,146.136042 L116.734917,140.841253 L108.872227,131.906836 C108.060658,130.845137 107.900996,129.563011 108.750831,128.436964 L108.873008,128.284415 L117.218522,118.933079 L117.183365,118.933079 L122.268645,113.778306 C123.430392,112.600296 123.785088,110.568111 122.152236,110.568111 Z M104.96846,1.11171783 C105.459878,-0.370572609 107.55446,-0.370572609 108.045878,1.11171783 L108.045878,1.11171783 L127.750262,80.7478692 L115.177301,85.5342202 C109.855297,87.2949779 103.378578,87.576574 97.8096931,85.5342202 L97.8096931,85.5342202 L85.276577,80.6946789 Z" id="Combined-Shape"></path>
            <path d="M267.607633,50.6928076 L265.380236,60.7191922 L271.686639,60.7191922 L269.522524,50.7553845 L268.595157,46.0519479 L267.607633,50.6928076 Z M273.974194,36.5824977 L284.2971,77.9254944 L275.457824,77.9254944 L273.23277,68.021917 L263.83723,68.021917 L261.734835,77.9254944 L253.018218,77.9254944 L263.403625,36.5824977 L273.974194,36.5824977 Z M293.442556,48.2191425 C294.001163,49.0850504 294.308983,50.6322644 294.557427,52.3656447 C295.730111,49.4558186 298.080168,47.4744773 302.284176,47.4744773 C306.115519,47.4744773 308.959338,49.2704345 310.382029,52.5510288 C311.679716,49.579408 314.275873,47.4744773 318.60254,47.4744773 C324.661281,47.4744773 328.060582,51.5607492 328.060582,58.8626918 L328.060582,77.9251815 L319.406466,77.9251815 L319.406466,59.9139838 C319.406466,56.2016089 318.231438,54.5308056 315.636062,54.5308056 C313.657108,54.5308056 312.110977,55.953648 311.494556,58.0577964 L311.554713,58.7398847 L311.554713,77.9251815 L302.900598,77.9251815 L302.900598,59.9139838 C302.900598,56.2016089 301.727913,54.5308056 299.130194,54.5308056 C297.090301,54.5308056 295.607452,55.953648 294.988687,57.9975661 L294.988687,77.9251815 L286.397073,77.9251815 L286.397073,48.2191425 L293.442556,48.2191425 Z M340.425256,59.6055579 L347.841842,59.6055579 C347.779341,55.6444398 346.666814,53.6654452 344.319101,53.6654452 C341.908886,53.6654452 340.671356,55.7680292 340.425256,59.6055579 M344.070657,47.4742427 C352.16851,47.4742427 355.50609,52.7971907 355.50609,60.7820037 C355.50609,62.3299999 355.383431,64.0633802 355.260772,65.2374794 L340.425256,65.2374794 C340.796359,70.2514539 343.329233,71.9222572 347.59418,71.9222572 C350.191899,71.9222572 352.293513,71.1173618 353.899801,69.8806857 L353.899801,76.0061825 C352.539612,77.4916018 349.450475,78.6680476 345.554287,78.6680476 C336.840013,78.6680476 331.831298,73.2215102 331.831298,63.2577025 C331.831298,52.7369604 337.147833,47.4742427 344.070657,47.4742427 M366.076971,48.2191425 C366.633235,49.0850504 367.004338,50.7550716 367.249656,52.6120412 C368.424685,49.5183955 370.897401,47.9086046 374.049821,47.9086046 C375.038907,47.9086046 375.718611,48.0314118 376.088933,48.1565656 L376.088933,55.7072514 C375.595171,55.5820976 375.038907,55.4592904 374.049821,55.4592904 C371.145844,55.4592904 368.609845,56.9439275 367.620759,59.9765607 L367.620759,77.9251815 L359.029144,77.9251815 L359.029144,48.2191425 L366.076971,48.2191425 Z M379.558548,77.9251033 L388.150162,77.9251033 L388.150162,48.2190643 L379.558548,48.2190643 L379.558548,77.9251033 Z M379.064786,40.2436378 C379.064786,37.3963886 381.103898,35.4150473 383.885215,35.4150473 C386.606375,35.4150473 388.645487,37.3963886 388.645487,40.2436378 C388.645487,43.276271 386.606375,45.1324585 383.885215,45.1324585 C381.103898,45.1324585 379.064786,43.276271 379.064786,40.2436378 L379.064786,40.2436378 Z M404.653765,47.4743991 C407.991346,47.4743991 409.9703,48.4044484 411.145329,49.3931635 L411.145329,55.7071732 C410.341403,55.0250849 409.106217,54.4079202 407.003822,54.4079202 C403.047476,54.4079202 400.452101,57.4405534 400.452101,63.0724749 C400.452101,68.5808069 402.862315,71.7370296 407.003822,71.7370296 C408.980432,71.7370296 410.341403,71.1175182 411.145329,70.4369944 L411.145329,76.7486575 C410.217962,77.5543351 408.364011,78.6674218 404.653765,78.6674218 C397.359838,78.6674218 391.858143,73.5306401 391.858143,63.0724749 C391.858143,52.7973471 397.66844,47.4743991 404.653765,47.4743991 M431.113937,70.1890334 L431.113937,55.5820194 C430.495172,54.6535345 429.442803,54.0363698 427.713855,54.0363698 C424.06611,54.0363698 422.088719,57.68695 422.088719,63.3180892 C422.088719,69.1979717 424.06611,72.1077977 427.466193,72.1077977 C429.134983,72.1077977 430.372513,71.3654792 431.113937,70.1890334 M431.730358,75.4494045 C430.432671,77.3681688 428.207617,78.668204 424.745033,78.668204 C417.328447,78.668204 413.3096,72.6647322 413.3096,63.3180892 C413.3096,54.7161114 417.451888,47.4743991 425.426299,47.4743991 C428.516218,47.4743991 430.617831,48.5280378 431.855361,50.3216483 C432.041303,49.3931635 432.286622,48.7134218 432.657725,48.2190643 L439.705551,48.2190643 L439.705551,77.9251033 L432.657725,77.9251033 C432.226464,77.3681688 431.978802,76.5030431 431.730358,75.4494045 M451.819751,48.2191425 C452.378358,49.0850504 452.74868,50.6322644 452.934622,52.4258749 C454.107307,49.5183955 456.642524,47.4744773 460.907471,47.4744773 C466.78027,47.4744773 470.242854,51.4355954 470.242854,58.8626918 L470.242854,77.9251815 L461.588738,77.9251815 L461.588738,59.9139838 C461.588738,56.1413787 460.351208,54.5308056 457.56989,54.5308056 C455.467496,54.5308056 453.984647,55.953648 453.365882,58.1829502 L453.365882,77.9251815 L444.774268,77.9251815 L444.774268,48.2191425 L451.819751,48.2191425 Z M276.163778,85.2272805 L276.163778,92.7153894 L263.986921,92.7153894 L263.986921,101.753059 L274.123885,101.753059 L274.123885,109.055784 L263.986921,109.055784 L263.986921,126.634419 L263.979889,126.570277 L255.147644,126.570277 L255.147644,85.2272805 L276.163778,85.2272805 Z M286.085894,96.8640818 C286.642157,97.7299897 287.01326,99.4000108 287.258578,101.25698 C288.433607,98.1633347 290.906323,96.5535439 294.058743,96.5535439 C295.048611,96.5535439 295.727533,96.676351 296.097855,96.8015049 L296.097855,104.352191 C295.604874,104.227037 295.048611,104.10423 294.058743,104.10423 C291.154766,104.10423 288.618767,105.588867 287.629681,108.6215 L287.629681,126.570121 L279.038067,126.570121 L279.038067,96.8640818 L286.085894,96.8640818 Z M299.569111,126.570043 L308.160725,126.570043 L308.160725,96.8640035 L299.569111,96.8640035 L299.569111,126.570043 Z M299.07613,88.888577 C299.07613,86.0413278 301.115242,84.0599866 303.896559,84.0599866 C306.615375,84.0599866 308.656831,86.0413278 308.656831,88.888577 C308.656831,91.9212103 306.615375,93.7773977 303.896559,93.7773977 C301.115242,93.7773977 299.07613,91.9212103 299.07613,88.888577 L299.07613,88.888577 Z M320.462976,108.250497 L327.879562,108.250497 C327.81706,104.289379 326.704533,102.310384 324.35682,102.310384 C321.946606,102.310384 320.709076,104.412186 320.462976,108.250497 M324.108377,96.1191819 C332.206229,96.1191819 335.54381,101.44213 335.54381,109.426943 C335.54381,110.974939 335.421151,112.708319 335.298492,113.882419 L320.462976,113.882419 C320.834079,118.896393 323.366953,120.567196 327.6319,120.567196 C330.229619,120.567196 332.331232,119.762301 333.937521,118.525625 L333.937521,124.651122 C332.577332,126.136541 329.488195,127.312987 325.592007,127.312987 C316.877733,127.312987 311.869018,121.866449 311.869018,111.902642 C311.869018,101.3819 317.185553,96.1191819 324.108377,96.1191819 M346.112425,96.8640818 C346.671033,97.7299897 347.041354,99.2772037 347.227296,101.070814 C348.399981,98.1633347 350.935198,96.1194166 355.200145,96.1194166 C361.072944,96.1194166 364.535528,100.080535 364.535528,107.507631 L364.535528,126.570121 L355.881412,126.570121 L355.881412,108.558923 C355.881412,104.786318 354.643882,103.175745 351.862565,103.175745 C349.76017,103.175745 348.277322,104.598587 347.658557,106.827889 L347.658557,126.570121 L339.066942,126.570121 L339.066942,96.8640818 L346.112425,96.8640818 Z M386.109878,118.833973 L386.109878,104.226959 C385.491113,103.298474 384.438744,102.681309 382.709796,102.681309 C379.062052,102.681309 377.08466,106.331889 377.08466,111.963028 C377.08466,117.842911 379.062052,120.752737 382.462134,120.752737 C384.130924,120.752737 385.368454,120.010418 386.109878,118.833973 M380.422241,96.1193384 C382.894957,96.1193384 384.812191,96.8014266 386.109878,97.9778724 L386.109878,85.2270459 L393.526464,85.2270459 C394.516332,87.1465924 394.701493,89.8702522 394.701493,93.8916006 L394.701493,126.570043 L387.653666,126.570043 C387.222405,126.013108 386.974743,125.085405 386.788801,124.031767 C385.428612,126.013108 383.203558,127.313143 379.740974,127.313143 C372.324388,127.313143 368.306322,121.309671 368.306322,111.963028 C368.306322,103.361051 372.447829,96.1193384 380.422241,96.1193384 M406.259507,120.752893 C408.980667,120.752893 410.586174,119.824409 410.586174,118.028451 C410.586174,116.109687 407.682198,115.181984 406.259507,114.750204 L405.332141,114.438884 C401.561737,113.202208 398.717918,110.726509 398.717918,105.651522 C398.717918,100.205767 402.921926,96.1194948 409.84475,96.1194948 C412.936231,96.1194948 416.028494,96.86416 417.448841,98.0382592 L417.448841,104.412499 C416.213654,103.484014 413.615935,102.496081 411.019779,102.496081 C408.732223,102.496081 407.125934,103.29863 407.125934,105.03201 C407.125934,106.642584 408.17596,107.259748 410.897119,108.188233 L411.886206,108.498771 C416.088651,109.920831 418.994972,112.645273 418.994972,117.471517 C418.994972,122.857824 415.101127,127.312517 407.188436,127.312517 C403.540691,127.312517 400.44921,126.570199 398.717918,125.08478 L398.717918,118.339772 C400.634371,119.824409 403.603193,120.752893 406.259507,120.752893 M263.09518,168.087081 C267.049182,168.087081 269.028137,166.353701 269.028137,163.258491 C269.028137,160.225857 266.307758,158.680208 263.09518,156.884251 L261.920152,156.204509 C257.653642,153.790605 254.994984,150.757972 254.994984,144.815512 C254.994984,138.069722 259.447436,132.746774 267.730449,132.746774 C270.264104,132.746774 273.232145,133.241132 275.394697,134.666321 L275.394697,141.722649 C273.788408,140.66901 271.934457,139.926692 269.214079,139.926692 C266.061659,139.926692 263.897544,141.351099 263.897544,144.381385 C263.897544,146.548893 264.57881,147.910723 268.780474,150.387204 L269.955503,151.066945 C273.97435,153.294683 278.053355,156.575277 278.053355,163.19826 C278.053355,169.943269 273.97435,175.57519 264.638968,175.57519 C260.622464,175.57519 256.912218,174.584128 255.119987,172.913325 L255.119987,165.054448 C257.15988,166.848058 259.755256,168.087081 263.09518,168.087081 M289.425974,156.512857 L296.84256,156.512857 C296.780059,152.551739 295.667532,150.572744 293.319819,150.572744 C290.909604,150.572744 289.672074,152.674546 289.425974,156.512857 M293.071375,144.381542 C301.169228,144.381542 304.506808,149.70449 304.506808,157.689303 C304.506808,159.237299 304.384149,160.970679 304.26149,162.144778 L289.425974,162.144778 C289.797077,167.158753 292.329951,168.829556 296.594898,168.829556 C299.192617,168.829556 301.294231,168.024661 302.900519,166.787985 L302.900519,172.913481 C301.54033,174.398901 298.451193,175.575347 294.555005,175.575347 C285.840731,175.575347 280.832016,170.128809 280.832016,160.165001 C280.832016,149.644259 286.148551,144.381542 293.071375,144.381542 M315.079799,145.126441 C315.636062,145.992349 316.007165,147.662371 316.252483,149.51934 C317.427512,146.425694 319.900228,144.815904 323.052648,144.815904 C324.041735,144.815904 324.721439,144.938711 325.09176,145.063865 L325.09176,152.61455 C324.597998,152.489397 324.041735,152.366589 323.052648,152.366589 C320.148672,152.366589 317.612673,153.851226 316.623586,156.88386 L316.623586,174.83248 L308.031972,174.83248 L308.031972,145.126441 L315.079799,145.126441 Z M336.216873,145.126441 L339.245853,158.060305 L340.606042,164.620712 L342.029514,158.060305 L344.995992,145.126441 L353.527449,145.126441 L344.995992,174.83248 L335.785613,174.83248 L327.5026,145.126441 L336.216873,145.126441 Z M355.997821,174.83248 L364.589435,174.83248 L364.589435,145.126441 L355.997821,145.126441 L355.997821,174.83248 Z M355.504059,137.151015 C355.504059,134.303766 357.543952,132.322424 360.324488,132.322424 C363.045648,132.322424 365.085541,134.303766 365.085541,137.151015 C365.085541,140.183648 363.045648,142.039836 360.324488,142.039836 C357.543952,142.039836 355.504059,140.183648 355.504059,137.151015 L355.504059,137.151015 Z M381.093194,144.381776 C384.430775,144.381776 386.409729,145.311826 387.584758,146.300541 L387.584758,152.61455 C386.780832,151.932462 385.544865,151.315297 383.443251,151.315297 C379.486906,151.315297 376.89153,154.347931 376.89153,159.979852 C376.89153,165.488184 379.301745,168.644407 383.443251,168.644407 C385.419862,168.644407 386.780832,168.024895 387.584758,167.344372 L387.584758,173.656035 C386.657392,174.461712 384.803441,175.574799 381.093194,175.574799 C373.799268,175.574799 368.297572,170.438017 368.297572,159.979852 C368.297572,149.704724 374.107869,144.381776 381.093194,144.381776 M398.343065,156.512857 L405.759651,156.512857 C405.69715,152.551739 404.584623,150.572744 402.23691,150.572744 C399.826695,150.572744 398.589165,152.674546 398.343065,156.512857 M401.988466,144.381542 C410.086319,144.381542 413.423899,149.70449 413.423899,157.689303 C413.423899,159.237299 413.30124,160.970679 413.178581,162.144778 L398.343065,162.144778 C398.714168,167.158753 401.247042,168.829556 405.511989,168.829556 C408.109708,168.829556 410.211322,168.024661 411.81761,166.787985 L411.81761,172.913481 C410.457421,174.398901 407.368284,175.575347 403.472096,175.575347 C394.757822,175.575347 389.749107,170.128809 389.749107,160.165001 C389.749107,149.644259 395.065642,144.381542 401.988466,144.381542 M271.099515,181.757788 C274.251154,181.757788 276.41605,182.500107 277.776239,183.676553 L277.776239,190.422343 C276.41605,189.680024 274.995703,189.245897 273.015968,189.245897 C267.143169,189.245897 263.497768,194.011911 263.497768,203.110593 C263.497768,212.208492 266.958008,217.098095 273.015968,217.098095 C274.995703,217.098095 276.41605,216.663968 277.776239,215.92165 L277.776239,222.666658 C276.293391,223.90568 274.065993,224.586204 271.162016,224.586204 C259.972683,224.586204 254.410048,215.79806 254.410048,203.110593 C254.410048,190.422343 260.406287,181.757788 271.099515,181.757788 M293.228332,218.026033 C296.443254,218.026033 297.803443,214.684426 297.803443,208.989928 C297.803443,203.296211 296.443254,199.954605 293.228332,199.954605 C290.013411,199.954605 288.655565,203.296211 288.655565,208.989928 C288.655565,214.684426 290.013411,218.026033 293.228332,218.026033 M293.228332,193.392634 C301.326184,193.392634 306.395057,198.963543 306.395057,208.989928 C306.395057,219.017094 301.326184,224.585657 293.228332,224.585657 C285.13048,224.585657 280.061607,219.017094 280.061607,208.989928 C280.061607,198.963543 285.13048,193.392634 293.228332,193.392634 M317.153052,194.137143 C317.709316,195.003051 318.017917,196.550265 318.265579,198.283645 C319.438264,195.373819 321.788321,193.392478 325.992329,193.392478 C329.823672,193.392478 332.66749,195.188435 334.090181,198.469029 C335.387869,195.497408 337.984025,193.392478 342.310693,193.392478 C348.369433,193.392478 351.769516,197.478749 351.769516,204.780692 L351.769516,223.843182 L343.1154,223.843182 L343.1154,205.831984 C343.1154,202.119609 341.940371,200.448806 339.344215,200.448806 C337.36526,200.448806 335.819129,201.871648 335.202708,203.975797 L335.262866,204.657885 L335.262866,223.843182 L326.60875,223.843182 L326.60875,205.831984 C326.60875,202.119609 325.436065,200.448806 322.838346,200.448806 C320.798453,200.448806 319.315605,201.871648 318.69684,203.915566 L318.69684,223.843182 L310.105225,223.843182 L310.105225,194.137143 L317.153052,194.137143 Z M363.639881,194.137143 C364.196145,195.003051 364.504746,196.550265 364.752408,198.283645 C365.925093,195.373819 368.27515,193.392478 372.479158,193.392478 C376.310501,193.392478 379.154319,195.188435 380.57701,198.469029 C381.874698,195.497408 384.470854,193.392478 388.797522,193.392478 C394.856262,193.392478 398.256345,197.478749 398.256345,204.780692 L398.256345,223.843182 L389.602229,223.843182 L389.602229,205.831984 C389.602229,202.119609 388.4272,200.448806 385.831044,200.448806 C383.852089,200.448806 382.305958,201.871648 381.689537,203.975797 L381.749695,204.657885 L381.749695,223.843182 L373.095579,223.843182 L373.095579,205.831984 C373.095579,202.119609 371.922894,200.448806 369.325175,200.448806 C367.285282,200.448806 365.802434,201.871648 365.183669,203.915566 L365.183669,223.843182 L356.592054,223.843182 L356.592054,194.137143 L363.639881,194.137143 Z M417.849475,186.709577 L425.082463,186.709577 L425.082463,194.137456 L432.932653,194.137456 C433.055312,190.547888 433.426415,188.194996 434.167839,186.709577 L441.46411,186.709577 L441.46411,194.137456 L447.83067,194.137456 L447.83067,200.69708 L441.46411,200.69708 L441.46411,212.888625 C441.46411,216.292809 442.450852,217.654639 445.049353,217.654639 C446.4697,217.654639 447.519725,217.157934 448.13849,216.601 L448.13849,222.667049 C446.963462,223.843495 445.049353,224.585813 442.390695,224.585813 C436.270234,224.585813 432.870152,221.490603 432.870152,214.250455 L432.870152,200.69708 L425.082463,200.69708 L425.082463,213.630944 C425.082463,216.292809 426.009829,217.654639 428.048941,217.654639 C429.284908,217.654639 430.088834,217.157934 430.645098,216.601 L430.645098,222.667049 C429.717731,223.657328 427.926282,224.585813 425.268405,224.585813 C419.147163,224.585813 416.489286,220.873438 416.489286,214.250455 L416.489286,196.610808 C416.489286,191.535821 416.922109,188.442957 417.849475,186.709577 M458.709215,205.523636 L466.125801,205.523636 C466.063299,201.562518 464.950772,199.583524 462.603059,199.583524 C460.192845,199.583524 458.955315,201.685325 458.709215,205.523636 M462.354616,193.392321 C470.452468,193.392321 473.790049,198.715269 473.790049,206.700082 C473.790049,208.248078 473.66739,209.981459 473.54473,211.155558 L458.709215,211.155558 C459.080318,216.169532 461.613191,217.840336 465.878138,217.840336 C468.475858,217.840336 470.577471,217.03544 472.18376,215.798764 L472.18376,221.924261 C470.823571,223.40968 467.734433,224.586126 463.838245,224.586126 C455.123972,224.586126 450.115257,219.139589 450.115257,209.175781 C450.115257,198.655039 455.431792,193.392321 462.354616,193.392321 M484.919303,205.523636 L492.335889,205.523636 C492.273387,201.562518 491.16086,199.583524 488.813147,199.583524 C486.402932,199.583524 485.165402,201.685325 484.919303,205.523636 M488.564704,193.392321 C496.662556,193.392321 500.000137,198.715269 500.000137,206.700082 C500.000137,208.248078 499.877478,209.981459 499.754818,211.155558 L484.919303,211.155558 C485.290405,216.169532 487.823279,217.840336 492.088226,217.840336 C494.685946,217.840336 496.787559,217.03544 498.393848,215.798764 L498.393848,221.924261 C497.033659,223.40968 493.944521,224.586126 490.048333,224.586126 C481.33406,224.586126 476.325345,219.139589 476.325345,209.175781 C476.325345,198.655039 481.64188,193.392321 488.564704,193.392321 M403.076305,223.843495 L411.667919,223.843495 L411.667919,194.137456 L403.076305,194.137456 L403.076305,223.843495 Z M402.583324,186.161247 C402.583324,183.313998 404.622436,181.332656 407.403754,181.332656 C410.124913,181.332656 412.164025,183.313998 412.164025,186.161247 C412.164025,189.19388 410.124913,191.05085 407.403754,191.05085 C404.622436,191.05085 402.583324,189.19388 402.583324,186.161247 L402.583324,186.161247 Z" id="Text"></path>
        </g>
    </g>
</svg>